<svg width="121" height="39" viewBox="0 0 121 39" fill="none" xmlns="http://www.w3.org/2000/svg">
<path d="M34.7365 27.1656C34.5464 26.7089 34.3682 26.2288 34.1781 25.8189L33.299 23.8631L33.2633 23.828C30.6497 18.2067 27.8579 12.4918 24.8998 6.87054L24.781 6.63632C24.484 6.0859 24.187 5.47693 23.8781 4.91481C23.4979 4.24728 23.1297 3.53291 22.5238 2.85368C21.9332 2.14298 21.1899 1.57038 20.3476 1.1772C19.5053 0.784025 18.5849 0.580078 17.653 0.580078C16.721 0.580078 15.8006 0.784025 14.9583 1.1772C14.116 1.57038 13.3727 2.14298 12.7821 2.85368C12.2238 3.53291 11.808 4.24728 11.4278 4.91481C11.1308 5.52378 10.8338 6.12103 10.5249 6.67145L10.4061 6.90567C7.49552 12.5269 4.65619 18.2419 2.04258 23.8631L1.9713 23.9334C1.70994 24.5424 1.40106 25.1748 1.10406 25.854C0.913978 26.2639 0.723897 26.7089 0.533816 27.2008C0.0206369 28.4887 -0.143237 29.8863 0.0583437 31.2557C0.259925 32.6251 0.820004 33.9191 1.68338 35.0101C2.54676 36.1012 3.68364 36.9516 4.98197 37.4776C6.28031 38.0037 7.69528 38.1872 9.08745 38.01C10.4221 37.8368 11.7073 37.3985 12.8653 36.7218C14.4097 35.8669 15.8947 34.6255 17.5579 32.8337C19.2211 34.6255 20.7418 35.8669 22.2505 36.7335C23.7015 37.573 25.3445 38.0363 27.0263 38.0802C28.9739 38.0882 30.8586 37.4013 32.3325 36.1464C33.8064 34.8915 34.77 33.1533 35.0454 31.2528C35.3635 29.887 35.2559 28.4583 34.7365 27.1539V27.1656ZM17.6767 29.1096C15.6334 26.5332 14.3028 24.1676 13.8513 22.1416C13.6643 21.3909 13.624 20.6119 13.7325 19.8463C13.8157 19.249 14.0414 18.722 14.3503 18.277C15.0631 17.2582 16.3105 16.6258 17.6767 16.6258C18.3255 16.6062 18.9691 16.7458 19.5497 17.032C20.1303 17.3181 20.6297 17.7419 21.0031 18.2653C21.312 18.7337 21.5377 19.249 21.609 19.8463C21.7278 20.5255 21.6803 21.3101 21.4902 22.1416C21.0388 24.1325 19.7082 26.5215 17.6767 29.1096ZM32.8119 30.8429C32.6769 31.8078 32.2878 32.721 31.6833 33.4915C31.0789 34.2621 30.2801 34.863 29.3667 35.2345C28.4638 35.6092 27.4659 35.7146 26.4917 35.6092C25.5413 35.4921 24.5909 35.1876 23.6167 34.6255C21.9993 33.64 20.5449 32.4156 19.3043 30.9951C21.7991 27.9503 23.3079 25.1748 23.8781 22.7038C24.1514 21.5327 24.187 20.4787 24.0682 19.5067C23.9198 18.5853 23.5713 17.7065 23.0465 16.9303C22.4473 16.0885 21.6474 15.4048 20.7173 14.9392C19.7872 14.4737 18.7553 14.2405 17.7124 14.2602C15.5146 14.2602 13.5543 15.2673 12.3663 16.9185C11.8315 17.6928 11.4859 18.5787 11.3565 19.5067C11.2021 20.4904 11.2377 21.5795 11.5466 22.7038C12.1169 25.1748 13.6613 27.9854 16.1204 31.0185C14.9009 32.4662 13.4431 33.7014 11.808 34.6724C10.8219 35.2345 9.88341 35.5273 8.93301 35.6444C7.45499 35.831 5.96199 35.435 4.77851 34.5425C3.59503 33.65 2.81675 32.3331 2.61282 30.878C2.49402 29.9411 2.57718 29.0042 2.95735 27.9503C3.07615 27.5755 3.25435 27.2008 3.44443 26.7557C3.70579 26.1468 4.01467 25.5144 4.31167 24.882L4.35919 24.8C6.92528 19.2139 9.72897 13.5106 12.6396 7.92452L12.7584 7.6903C13.0554 7.12818 13.3524 6.53092 13.6613 5.96879C13.9701 5.37153 14.3028 4.7977 14.7305 4.32926C15.1007 3.89364 15.5632 3.5433 16.0856 3.30293C16.608 3.06256 17.1775 2.93798 17.7539 2.93798C18.3304 2.93798 18.8999 3.06256 19.4223 3.30293C19.9446 3.5433 20.4072 3.89364 20.7774 4.32926C21.1932 4.7977 21.5377 5.37153 21.8466 5.96879C22.1436 6.53092 22.4406 7.13989 22.7495 7.6903L22.8683 7.92452C25.767 13.5106 28.5707 19.2139 31.1843 24.8L31.22 24.8351C31.5289 25.4441 31.7902 26.1234 32.0872 26.7089C32.2773 27.1656 32.4674 27.5287 32.5862 27.9151C32.8119 28.9691 32.9307 29.906 32.8119 30.8429ZM49.3489 28.852C48.4537 28.8649 47.5671 28.679 46.7547 28.308C45.9423 27.937 45.2251 27.3904 44.6563 26.7089C43.3781 25.2567 42.6997 23.3843 42.7555 21.4624C42.7359 19.4987 43.4362 17.5941 44.7276 16.0988C45.3249 15.4086 46.0685 14.8558 46.9059 14.4795C47.7434 14.1031 48.6543 13.9123 49.5746 13.9205C50.4406 13.8972 51.2984 14.0913 52.0673 14.4846C52.8363 14.878 53.4911 15.4576 53.9703 16.169L54.0891 14.3304H57.558V28.4773H54.0772L53.9584 26.4161C53.4644 27.1758 52.7816 27.7983 51.9748 28.2246C51.1681 28.651 50.2642 28.8669 49.3489 28.852ZM50.2518 25.4792C50.9408 25.4792 51.5467 25.2919 52.117 24.9523C52.6397 24.5775 53.0674 24.0856 53.4 23.4884C53.697 22.8911 53.8515 22.1768 53.8515 21.3804C53.8978 20.6888 53.7612 19.9971 53.4551 19.3731C53.149 18.749 52.6838 18.214 52.1051 17.8203C51.549 17.4788 50.907 17.2977 50.2518 17.2977C49.5966 17.2977 48.9546 17.4788 48.3985 17.8203C47.8758 18.195 47.4481 18.6869 47.1155 19.2842C46.8013 19.9428 46.6468 20.6645 46.664 21.3921C46.6177 22.0838 46.7543 22.7754 47.0604 23.3995C47.3665 24.0235 47.8317 24.5585 48.4104 24.9523C48.9688 25.2919 49.5746 25.4792 50.2518 25.4792ZM63.4981 10.5126C63.4981 10.9225 63.4268 11.2973 63.2367 11.6018C63.0466 11.8945 62.7853 12.1639 62.4407 12.3513C62.0962 12.5386 61.7279 12.6089 61.3478 12.6089C60.9676 12.6089 60.5874 12.5386 60.2429 12.3513C59.9171 12.1725 59.6431 11.9144 59.447 11.6018C59.263 11.2682 59.1727 10.8922 59.1856 10.5126C59.1856 10.0911 59.2688 9.7163 59.447 9.42353C59.637 9.0722 59.9103 8.8614 60.2429 8.67402C60.5874 8.48665 60.9557 8.40467 61.3478 8.40467C61.7259 8.39608 62.0999 8.48437 62.433 8.6609C62.7662 8.83743 63.0472 9.09617 63.2486 9.41181C63.4215 9.75324 63.5071 10.1311 63.4981 10.5126ZM59.4588 28.4304V14.307H63.2367V28.4538H59.447L59.4588 28.4304ZM73.3347 18.0077V18.0545C73.1565 17.9725 72.9189 17.9374 72.7407 17.9023C72.5031 17.8554 72.3131 17.8554 72.0873 17.8554C71.03 17.8554 70.234 18.1599 69.7113 18.7923C69.1411 19.4364 68.8797 20.3381 68.8797 21.4975V28.4421H65.09V14.2953H68.5708L68.6896 16.4384C69.0698 15.6889 69.5212 15.1268 70.1628 14.7052C70.8009 14.2955 71.5521 14.091 72.313 14.1196C72.5863 14.1196 72.8477 14.143 73.0734 14.1899C73.1922 14.225 73.2635 14.225 73.3347 14.2602V18.0077ZM74.8554 28.4304V8.49836H78.6332V16.1105C79.1678 15.4312 79.7737 14.9043 80.534 14.4944C81.7377 13.9126 83.1051 13.7476 84.4156 14.0259C85.7261 14.3043 86.9033 15.0097 87.7571 16.0285C89.0382 17.4837 89.7167 19.3609 89.6579 21.2867C89.6775 23.2504 88.9772 25.155 87.6858 26.6503C87.0885 27.3406 86.3449 27.8933 85.5075 28.2697C84.6701 28.646 83.7591 28.8368 82.8388 28.8286C81.9728 28.8519 81.115 28.6578 80.3461 28.2645C79.5771 27.8712 78.9223 27.2915 78.4432 26.5801L78.3244 28.4187L74.8554 28.4538V28.4304ZM82.1616 25.4792C82.8388 25.4792 83.4447 25.2919 84.0149 24.9523C84.5376 24.5775 84.9653 24.0856 85.298 23.4884C85.6068 22.8911 85.7494 22.1768 85.7494 21.3804C85.7494 20.5958 85.6068 19.8814 85.298 19.2842C84.986 18.7082 84.5477 18.2082 84.0149 17.8203C83.4588 17.4788 82.8168 17.2977 82.1616 17.2977C81.5065 17.2977 80.8644 17.4788 80.3083 17.8203C79.7737 18.195 79.3579 18.6869 79.0134 19.2842C78.6992 19.9428 78.5447 20.6645 78.562 21.3921C78.5156 22.0838 78.6522 22.7754 78.9583 23.3995C79.2644 24.0235 79.7296 24.5585 80.3083 24.9523C80.8667 25.2919 81.4726 25.4792 82.1616 25.4792ZM91.0835 28.4421V14.2953H94.5644L94.6832 16.1339C95.1206 15.4291 95.7411 14.8523 96.4805 14.4632C97.2199 14.0741 98.0513 13.8867 98.8887 13.9205C99.8464 13.9042 100.788 14.1666 101.595 14.6748C102.402 15.1831 103.039 15.9146 103.427 16.778C103.843 17.668 104.068 18.7689 104.068 19.9985V28.4773H100.279V20.4904C100.279 19.5067 100.053 18.7337 99.6015 18.1599C99.1501 17.5978 98.5323 17.2933 97.7482 17.2933C97.178 17.2933 96.679 17.4104 96.2395 17.668C95.8237 17.9374 95.4791 18.277 95.2178 18.7572C94.9535 19.2425 94.8225 19.7875 94.8376 20.3381V28.4421H91.0835ZM105.957 28.4421V8.48665H109.747V16.0988C110.26 15.4157 110.928 14.8601 111.697 14.4759C112.467 14.0917 113.316 13.8895 114.178 13.8854C115.074 13.8725 115.96 14.0584 116.773 14.4294C117.585 14.8004 118.302 15.347 118.871 16.0285C120.143 17.4836 120.817 19.3551 120.76 21.275C120.781 23.2389 120.08 25.1439 118.788 26.6386C118.19 27.3289 117.447 27.8816 116.609 28.2579C115.772 28.6343 114.861 28.8251 113.941 28.8169C113.075 28.8402 112.217 28.6461 111.448 28.2528C110.679 27.8595 110.024 27.2798 109.545 26.5684L109.438 28.407L105.957 28.4421ZM113.299 25.4792C113.988 25.4792 114.594 25.2919 115.153 24.9523C115.687 24.5775 116.103 24.0856 116.447 23.4884C116.744 22.8911 116.899 22.1768 116.899 21.3804C116.945 20.6888 116.809 19.9971 116.502 19.3731C116.196 18.749 115.731 18.214 115.153 17.8203C114.596 17.4788 113.954 17.2977 113.299 17.2977C112.644 17.2977 112.002 17.4788 111.446 17.8203C110.923 18.195 110.496 18.6869 110.163 19.2842C109.831 19.9369 109.676 20.6629 109.711 21.3921C109.665 22.0838 109.802 22.7754 110.108 23.3995C110.414 24.0235 110.879 24.5585 111.458 24.9523C112.016 25.2919 112.586 25.4792 113.299 25.4792Z" fill="white"/>
</svg>
